HIERARCHY
ROOT ROOT
{
	OFFSET 0.000000 56.020000 -5.659234
	CHANNELS 6 Xposition Yposition Zposition Xrotation Yrotation Zrotation 
	JOINT C_spine0001_bind_JNT
	{
		OFFSET 0.000000 1.618999 0.000000
		CHANNELS 3 Xrotation Yrotation Zrotation
		JOINT C_spine0002_bind_JNT
		{
			OFFSET 0.000000 4.942001 0.000001
			CHANNELS 3 Xrotation Yrotation Zrotation
			JOINT C_spine0003_bind_JNT
			{
				OFFSET 0.000000 4.942001 -0.000000
				CHANNELS 3 Xrotation Yrotation Zrotation
				JOINT C_neck0001_bind_JNT
				{
					OFFSET 0.000000 17.026009 -0.000000
					CHANNELS 3 Xrotation Yrotation Zrotation
					JOINT C_neck0002_bind_JNT
					{
						OFFSET 0.000000 3.249985 0.000000
						CHANNELS 3 Xrotation Yrotation Zrotation
						JOINT C_head_bind_JNT
						{
							OFFSET 0.000000 5.278008 0.000000
							CHANNELS 3 Xrotation Yrotation Zrotation
							End Site
							{
								OFFSET 0.000000 0.000000 0.000000
							}
						}
					}
				}
				JOINT L_clavicle_bind_JNT
				{
					OFFSET 4.590000 12.067001 0.834000
					CHANNELS 3 Xrotation Yrotation Zrotation
					JOINT L_armUpper0001_bind_JNT
					{
						OFFSET 7.812635 0.512001 -3.452945
						CHANNELS 3 Xrotation Yrotation Zrotation
						JOINT L_armLower0001_bind_JNT
						{
							OFFSET 15.265892 -6.552116 -0.058157
							CHANNELS 3 Xrotation Yrotation Zrotation
							JOINT L_hand0001_bind_JNT
							{
								OFFSET 14.747667 -6.369995 5.049225
								CHANNELS 3 Xrotation Yrotation Zrotation
								End Site
								{
									OFFSET 0.000000 0.000000 0.000000
								}
							}
						}
					}
				}
				JOINT R_clavicle_bind_JNT
				{
					OFFSET -4.590000 12.067001 0.834000
					CHANNELS 3 Xrotation Yrotation Zrotation
					JOINT R_armUpper0001_bind_JNT
					{
						OFFSET -7.812635 0.512001 -3.452945
						CHANNELS 3 Xrotation Yrotation Zrotation
						JOINT R_armLower0001_bind_JNT
						{
							OFFSET -15.265890 -6.552124 -0.058160
							CHANNELS 3 Xrotation Yrotation Zrotation
							JOINT R_hand0001_bind_JNT
							{
								OFFSET -14.746784 -6.369629 5.048937
								CHANNELS 3 Xrotation Yrotation Zrotation
								End Site
								{
									OFFSET 0.000000 0.000000 0.000000
								}
							}
						}
					}
				}
			}
		}
	}
	JOINT C_pelvis0001_bind_JNT
	{
		OFFSET -0.000000 0.000000 0.000000
		CHANNELS 3 Xrotation Yrotation Zrotation
		JOINT L_legUpper0001_bind_JNT
		{
			OFFSET 6.599999 -6.027000 0.539000
			CHANNELS 3 Xrotation Yrotation Zrotation
			JOINT L_legLower0001_bind_JNT
			{
				OFFSET -0.140713 -19.187443 0.040261
				CHANNELS 3 Xrotation Yrotation Zrotation
				JOINT L_foot0001_bind_JNT
				{
					OFFSET -0.132215 -18.028637 -1.138370
					CHANNELS 3 Xrotation Yrotation Zrotation
					JOINT L_foot0002_bind_JNT
					{
						OFFSET 0.007014 -4.693133 9.886524
						CHANNELS 3 Xrotation Yrotation Zrotation
						End Site
						{
							OFFSET 0.000000 0.000000 0.000000
						}
					}
				}
			}
		}
		JOINT R_legUpper0001_bind_JNT
		{
			OFFSET -6.599999 -6.027000 0.539000
			CHANNELS 3 Xrotation Yrotation Zrotation
			JOINT R_legLower0001_bind_JNT
			{
				OFFSET 0.140710 -19.187164 0.040550
				CHANNELS 3 Xrotation Yrotation Zrotation
				JOINT R_foot0001_bind_JNT
				{
					OFFSET 0.132215 -18.028633 -1.138362
					CHANNELS 3 Xrotation Yrotation Zrotation
					JOINT R_foot0002_bind_JNT
					{
						OFFSET -0.007014 -4.693128 9.886505
						CHANNELS 3 Xrotation Yrotation Zrotation
						End Site
						{
							OFFSET 0.000000 0.000000 0.000000
						}
					}
				}
			}
		}
	}
}
MOTION
Frames: 5
Frame Time: 0.033333
-2.758951 47.516232 12.440876 -0.005125 -3.328920 -0.002441 0.253888 6.350603 -0.768911 1.104509 -2.551497 1.425578 0.507004 -2.153123 0.365867 -3.153674 0.647751 0.240276 1.956558 3.152743 -0.045623 10.392696 1.330365 0.099631 -5.737603 9.988465 -4.501794 8.417302 18.153044 -63.008770 12.710891 13.959208 0.134653 -29.892847 -39.298321 -48.373623 -4.083276 -8.946511 3.550303 5.620027 -8.167742 60.767368 23.977646 -6.300459 -1.777019 -7.352019 37.847027 27.468311 0.058492 6.196259 -0.770613 0.253226 -0.499280 -6.006099 27.194218 5.210353 -1.391224 -13.377571 -6.876345 -0.162152 -6.996561 -0.770212 2.372240 5.742357 0.657530 14.156505 0.030645 -10.567625 1.080650 -6.768624 -6.167329 -9.397166 -1.906746 0.091916 -0.242366 
-2.624528 47.638870 12.646557 -0.001976 -3.258921 -0.005118 0.382627 6.480299 -0.313762 0.824855 -2.294831 1.322807 0.374336 -1.988672 0.188325 -3.043139 0.557750 0.374405 1.896364 3.112065 -0.168676 10.050831 1.273157 0.184975 -5.632421 10.114217 -4.613184 9.033279 18.774286 -63.040169 13.170883 14.457160 0.860946 -30.088026 -38.594307 -48.936047 -4.094690 -9.093795 3.399355 5.361381 -7.971060 60.719997 23.828398 -6.074597 -1.587146 -7.385235 38.007561 27.130314 0.301619 6.434391 -0.319426 1.824978 -0.913886 -6.664959 21.421238 5.458858 -1.256348 -14.102867 -7.421805 -1.179735 -4.348152 -0.876515 2.156994 5.955856 0.444258 13.617348 -0.696335 -10.455770 0.637023 -6.280477 -6.458936 -8.943268 -2.071881 0.201549 -0.237975 
-2.429933 47.764339 12.808373 -0.001793 -2.911502 -0.007907 0.590211 6.359713 -0.047253 0.476277 -2.070861 1.113262 0.021053 -1.775736 0.188129 -2.849503 0.389684 0.449791 1.868083 3.320514 -0.135979 10.104462 0.902662 0.033235 -5.325191 10.285107 -4.668650 9.296299 18.927118 -62.887440 13.475461 15.291244 1.270544 -30.117823 -37.955318 -49.232994 -3.890512 -9.251998 3.414474 5.240430 -7.741638 60.656948 23.592625 -5.899238 -1.623089 -7.596997 38.170128 27.210426 0.430190 6.378362 0.049874 3.143378 -1.181576 -7.173029 15.659292 5.180776 -0.657923 -13.586452 -8.030457 -1.889970 -2.584387 -0.873377 1.618408 6.519497 0.082221 13.078413 -1.535143 -10.165485 0.333316 -5.788908 -6.423038 -8.621125 -2.339826 0.214652 -0.183266 
-2.195458 47.833393 12.960579 0.001117 -3.028026 -0.009224 0.818023 6.815537 -0.028538 -0.015575 -1.923555 1.168152 -0.081701 -1.700805 0.124399 -2.713066 0.335470 0.656441 1.750887 3.322294 -0.217018 10.059013 0.839368 -0.040616 -5.106286 10.502210 -4.714431 9.663927 19.350767 -62.916412 14.080131 15.675426 1.941020 -29.986458 -37.332481 -49.286556 -3.842412 -9.306413 3.291866 5.078501 -7.589314 60.874931 23.567709 -5.830897 -1.425906 -7.296995 38.168636 26.669373 0.682282 6.853583 0.185839 4.347716 -1.547610 -7.346028 11.174612 4.742530 -0.406252 -12.103028 -8.768730 -1.987625 -2.319472 -0.891047 1.065000 6.621850 -0.186680 12.727228 -2.029606 -10.162374 0.039166 -5.422548 -6.450788 -8.251005 -2.388474 0.068089 -0.055174 
-1.962014 47.880821 13.159077 -0.000544 -2.740719 -0.006955 0.866329 6.775681 -0.126594 -0.239573 -1.683580 1.172208 -0.166357 -1.593811 0.215771 -2.711341 0.143195 0.608842 1.757905 3.362909 -0.083572 9.896520 0.777735 -0.053659 -5.009452 10.503642 -4.719128 9.819433 19.355206 -62.914753 14.271074 16.138466 2.316412 -29.615948 -36.831554 -49.292065 -3.893014 -9.412378 3.352844 5.092031 -7.600191 60.701035 23.601728 -5.743250 -1.396966 -7.428734 38.258816 26.667112 0.694998 6.857494 0.184399 4.890786 -1.627983 -7.433933 8.670068 4.095772 -0.267763 -11.025876 -9.675489 -1.547372 -2.064375 -0.809473 0.641703 7.044895 -0.226310 12.545244 -2.312620 -9.964202 -0.202941 -5.335808 -6.762592 -7.917496 -2.487632 0.086250 -0.122435 
